<?xml version="1.0" standalone="no"?>
<!DOCTYPE svg PUBLIC "-//W3C//DTD SVG 20010904//EN"
 "http://www.w3.org/TR/2001/REC-SVG-20010904/DTD/svg10.dtd">
<svg version="1.0" xmlns="http://www.w3.org/2000/svg"
 width="866.000000pt" height="161.000000pt" viewBox="0 0 866.000000 161.000000"
 preserveAspectRatio="xMidYMid meet">

<g transform="translate(0.000000,161.000000) scale(0.100000,-0.100000)"
fill="#000000" stroke="none">
<path d="M1070 1475 c0 -12 -17 -15 -95 -15 l-95 0 0 -40 0 -40 -355 0 -355 0
0 -55 c0 -52 1 -55 25 -55 20 0 25 -5 25 -24 0 -19 6 -25 28 -28 l27 -3 0
-351 c0 -391 2 -379 -70 -391 -32 -5 -35 -8 -35 -40 0 -34 18 -63 39 -63 6 0
11 -11 11 -24 0 -33 17 -36 228 -36 155 0 182 2 182 15 0 8 7 15 15 15 9 0 15
9 15 25 0 16 -6 25 -15 25 -8 0 -15 7 -15 15 0 8 -7 15 -15 15 -8 0 -15 5 -15
11 0 16 -25 37 -54 45 l-26 6 0 134 0 134 45 0 45 0 0 -40 c0 -22 5 -40 10
-40 6 0 10 -7 10 -15 0 -8 7 -15 15 -15 8 0 15 -5 15 -11 0 -34 91 -57 103
-26 4 10 2 283 -3 404 0 6 -10 13 -22 15 -17 2 -24 11 -26 31 -3 25 -6 27 -52
27 l-48 0 -7 -55 c-3 -30 -11 -55 -16 -55 -5 0 -9 -11 -9 -24 0 -21 -20 -35
-52 -36 -5 0 -8 70 -8 155 l0 155 110 0 c91 0 110 -3 110 -15 0 -8 7 -15 15
-15 12 0 15 -13 15 -60 0 -53 3 -64 26 -85 15 -14 33 -25 40 -25 8 0 14 -11
14 -25 0 -22 4 -25 40 -25 l39 0 3 159 c2 87 2 165 0 174 -2 8 -14 18 -28 21
-35 9 -35 56 1 56 20 0 25 -5 25 -25 0 -14 7 -28 15 -31 13 -5 15 -61 15 -415
0 -357 -2 -409 -15 -409 -8 0 -15 -4 -15 -10 0 -5 -11 -10 -25 -10 -22 0 -25
-4 -25 -40 0 -34 4 -41 25 -46 18 -4 25 -13 25 -30 l0 -24 189 0 189 0 6 24
c9 35 -3 56 -30 56 -20 0 -24 5 -24 30 0 20 -5 30 -15 30 -8 0 -15 7 -15 15 0
8 -4 15 -10 15 -7 0 -10 156 -10 449 0 395 -2 451 -16 465 -8 9 -22 16 -30 16
-8 0 -14 10 -14 25 0 23 -4 25 -40 25 -29 0 -40 -4 -40 -15z m54 -31 c3 -9 6
-223 6 -476 l0 -460 29 -29 c16 -16 39 -29 50 -29 12 0 21 -6 21 -15 0 -13
-22 -15 -162 -13 -102 2 -162 7 -161 13 1 6 14 11 28 13 14 2 25 10 25 18 0 8
7 14 15 14 9 0 15 9 15 25 0 14 5 25 10 25 7 0 10 140 10 400 0 260 -3 400
-10 400 -5 0 -10 11 -10 25 0 16 -6 25 -15 25 -8 0 -15 7 -15 15 0 10 -10 15
-31 15 -20 0 -29 4 -27 13 3 8 34 13 96 15 51 1 92 7 92 12 0 16 27 11 34 -6z
m-274 -244 c0 -82 -3 -150 -8 -150 -22 0 -43 46 -49 106 -3 35 -10 64 -14 64
-5 0 -9 11 -9 25 0 16 -6 25 -15 25 -8 0 -15 7 -15 15 0 13 -23 15 -150 15
l-150 0 0 -205 0 -205 66 0 c64 0 94 13 94 39 0 6 7 11 15 11 12 0 15 13 15
55 0 52 1 55 25 55 l25 0 2 -152 c1 -84 2 -168 1 -186 0 -35 -13 -55 -20 -34
-3 6 -11 12 -19 12 -10 0 -14 14 -14 55 0 42 -3 55 -15 55 -8 0 -15 6 -15 14
0 15 -49 26 -117 26 l-43 0 0 -181 c0 -204 2 -209 69 -209 30 0 41 -4 41 -15
0 -13 -27 -15 -180 -15 -153 0 -180 2 -180 15 0 10 11 15 35 15 22 0 43 8 55
20 19 19 20 33 20 405 0 350 -2 387 -17 405 -11 12 -30 20 -50 20 -29 0 -33 3
-33 25 l0 25 325 0 325 0 0 -150z"/>
<path d="M6042 1475 c-9 -11 -36 -15 -97 -15 l-85 0 0 -40 c0 -36 3 -40 25
-40 18 0 26 -7 31 -24 3 -14 12 -27 20 -30 12 -4 14 -72 14 -416 0 -358 -2
-410 -15 -410 -8 0 -15 -4 -15 -10 0 -5 -7 -10 -15 -10 -8 0 -15 5 -15 10 0 6
-11 10 -24 10 l-25 0 -3 217 c-2 162 -6 217 -15 221 -7 2 -13 17 -13 33 0 16
-5 29 -11 29 -14 0 -39 25 -39 39 0 6 -7 11 -15 11 -8 0 -15 7 -15 15 0 8 -7
15 -15 15 -8 0 -15 4 -15 10 0 5 -11 12 -25 16 -14 3 -25 10 -25 15 0 5 -56 9
-125 9 -69 0 -125 -4 -125 -9 0 -5 -12 -12 -26 -15 -28 -7 -84 -57 -84 -75 0
-6 -7 -11 -15 -11 -12 0 -15 -14 -15 -65 0 -51 3 -65 15 -65 8 0 15 -7 15 -15
0 -8 7 -15 15 -15 8 0 15 -7 15 -15 0 -8 7 -15 15 -15 8 0 15 -4 15 -10 0 -5
11 -12 25 -16 18 -4 25 -13 25 -30 0 -20 -5 -24 -30 -24 -20 0 -30 -5 -30 -15
0 -9 -9 -15 -25 -15 -16 0 -25 -6 -25 -15 0 -8 -7 -15 -15 -15 -8 0 -15 -4
-15 -10 0 -5 -7 -10 -15 -10 -9 0 -15 9 -15 25 0 14 -4 25 -10 25 -5 0 -10 7
-10 15 0 8 -7 15 -15 15 -8 0 -15 5 -15 11 0 6 -20 31 -45 56 -48 48 -54 63
-30 87 8 8 15 19 15 25 0 6 7 11 15 11 10 0 15 10 15 29 0 16 7 36 15 45 17
16 21 116 6 116 -5 0 -12 14 -16 30 -4 17 -10 30 -15 30 -5 0 -12 10 -15 22
-4 11 -18 31 -31 43 -13 12 -24 27 -24 34 0 6 -7 11 -15 11 -8 0 -15 5 -15 10
0 6 -11 10 -25 10 -16 0 -25 6 -25 15 0 11 -12 15 -45 15 -33 0 -45 4 -45 15
0 13 -33 15 -239 15 -258 0 -251 1 -251 -54 0 -21 31 -56 50 -56 6 0 10 -11
10 -25 0 -20 5 -25 25 -25 l25 0 0 -369 0 -369 -22 -6 c-13 -3 -35 -6 -49 -6
-27 0 -39 -16 -39 -49 0 -17 33 -51 50 -51 6 0 10 -11 10 -24 0 -33 16 -36
238 -36 149 0 201 3 229 15 19 8 57 15 84 15 37 0 49 4 49 15 0 8 9 15 20 15
12 0 31 11 44 25 13 14 28 25 35 25 6 0 11 4 11 10 0 15 33 50 47 50 7 0 13
-7 13 -15 0 -8 5 -15 10 -15 6 0 10 -7 10 -15 0 -8 7 -15 15 -15 8 0 15 -7 15
-15 0 -8 5 -15 11 -15 12 0 39 -25 39 -37 0 -4 18 -16 39 -27 31 -14 56 -17
122 -14 54 2 84 8 87 16 2 6 13 12 24 12 12 0 27 8 34 18 13 16 15 16 28 0 7
-10 20 -18 29 -18 8 0 17 -7 21 -15 8 -21 138 -21 160 0 12 12 49 15 205 15
l191 0 0 25 c0 22 4 25 35 25 29 0 36 -4 41 -25 l6 -25 149 0 149 0 0 40 c0
29 -4 40 -15 40 -8 0 -15 7 -15 15 0 8 -7 15 -15 15 -8 0 -15 5 -15 11 0 14
-25 39 -39 39 -6 0 -11 7 -11 15 0 8 -7 15 -15 15 -8 0 -15 7 -15 15 0 8 -4
15 -10 15 -5 0 -12 11 -16 25 -3 14 -10 25 -15 25 -5 0 -9 7 -9 15 0 8 -7 15
-15 15 -8 0 -15 7 -15 15 0 8 -4 15 -10 15 -5 0 -12 11 -16 25 -3 14 -12 25
-20 25 -8 0 -14 7 -14 15 0 8 -4 15 -10 15 -5 0 -10 12 -10 26 0 26 20 54 39
54 6 0 11 7 11 15 0 8 7 15 15 15 8 0 15 7 15 15 0 8 7 15 15 15 8 0 15 5 15
11 0 14 25 39 39 39 6 0 11 7 11 15 0 11 11 15 39 15 35 0 40 3 46 29 10 46
-3 81 -31 81 -19 0 -24 5 -24 25 l0 25 -151 0 c-117 0 -154 -3 -165 -14 -16
-17 -19 -66 -4 -66 6 0 20 -9 32 -20 37 -34 8 -107 -44 -112 l-23 -3 -3 258
-2 257 -25 0 c-21 0 -25 5 -25 30 0 29 -2 30 -42 30 -25 -1 -49 -7 -56 -15z
m68 -340 l0 -325 25 0 c14 0 25 5 25 10 0 6 5 10 11 10 14 0 129 115 129 129
0 6 7 11 15 11 8 0 15 7 15 15 0 8 5 15 10 15 6 0 10 11 10 25 0 20 -5 25 -24
25 -27 0 -59 26 -53 44 2 7 46 12 125 14 l122 3 0 -31 c0 -28 -2 -30 -40 -30
-29 0 -40 -4 -40 -15 0 -8 -7 -15 -15 -15 -8 0 -15 -5 -15 -11 0 -14 -25 -39
-39 -39 -6 0 -11 -7 -11 -15 0 -8 -7 -15 -15 -15 -8 0 -15 -7 -15 -15 0 -8 -5
-15 -11 -15 -14 0 -39 -25 -39 -39 0 -6 -7 -11 -15 -11 -8 0 -15 -7 -15 -15 0
-8 4 -15 10 -15 5 0 12 -11 16 -25 3 -14 10 -25 15 -25 5 0 9 -7 9 -15 0 -8 7
-15 15 -15 8 0 15 -7 15 -15 0 -8 7 -15 15 -15 9 0 15 -9 15 -25 0 -16 6 -25
15 -25 8 0 15 -5 15 -11 0 -7 11 -22 25 -35 14 -13 25 -32 25 -44 0 -11 7 -20
15 -20 8 0 15 -7 15 -15 0 -8 7 -15 15 -15 8 0 15 -5 15 -11 0 -14 25 -39 39
-39 6 0 11 -7 11 -15 0 -8 7 -15 15 -15 8 0 15 -7 15 -15 0 -13 -21 -15 -125
-15 -101 0 -125 3 -125 14 0 8 4 16 9 18 4 2 12 13 15 26 6 16 3 22 -8 22 -10
0 -16 9 -16 24 0 13 -7 26 -15 30 -8 3 -15 11 -15 17 0 6 -11 22 -25 35 -14
13 -25 30 -25 39 0 9 -7 18 -15 21 -8 4 -15 12 -15 20 0 8 -4 14 -10 14 -5 0
-12 11 -16 25 -5 19 -13 25 -35 25 -16 0 -29 5 -29 13 0 8 -4 7 -10 -3 -5 -8
-10 -75 -10 -147 0 -112 2 -133 15 -133 8 0 15 -7 15 -15 0 -9 9 -15 25 -15
16 0 25 -6 25 -15 0 -13 -23 -15 -150 -15 -127 0 -150 2 -150 15 0 9 9 15 25
15 16 0 25 6 25 15 0 8 7 15 15 15 13 0 15 57 15 450 0 393 -2 450 -15 450 -8
0 -15 4 -15 10 0 5 -11 12 -25 16 -14 3 -25 12 -25 20 0 11 19 14 85 14 50 0
85 4 85 10 0 6 11 10 25 10 l25 0 0 -325z m-1230 205 c0 -5 18 -10 40 -10 29
0 40 -4 40 -15 0 -10 10 -15 30 -15 17 0 30 -5 30 -11 0 -7 11 -22 25 -35 18
-16 25 -34 25 -59 0 -19 5 -35 10 -35 6 0 10 -11 10 -25 0 -14 -4 -25 -10 -25
-5 0 -10 -18 -10 -41 0 -31 -6 -47 -29 -70 -16 -16 -34 -29 -40 -29 -6 0 -11
-7 -11 -15 0 -8 -7 -15 -15 -15 -8 0 -15 -4 -15 -10 0 -5 -11 -12 -25 -16 -38
-10 -30 -24 14 -24 22 0 46 -7 55 -15 8 -8 26 -15 40 -15 16 0 26 -6 26 -15 0
-8 7 -15 15 -15 8 0 15 -7 15 -15 0 -8 4 -15 10 -15 5 0 12 -11 16 -25 3 -14
10 -25 15 -25 5 0 9 -38 9 -85 0 -50 -4 -85 -10 -85 -5 0 -10 -11 -10 -25 0
-16 -6 -25 -15 -25 -8 0 -15 -7 -15 -15 0 -8 -7 -15 -15 -15 -8 0 -15 -7 -15
-15 0 -8 -7 -15 -15 -15 -8 0 -15 -4 -15 -10 0 -5 -11 -10 -25 -10 -16 0 -25
-6 -25 -15 0 -13 -37 -15 -275 -15 -238 0 -275 2 -275 15 0 11 11 15 40 15 29
0 40 4 40 15 0 8 7 15 15 15 13 0 15 50 15 392 0 350 -2 393 -17 410 -9 10
-27 18 -40 18 -25 0 -53 21 -53 39 0 8 70 11 220 11 140 0 220 -4 220 -10z
m754 -245 c8 -8 26 -15 40 -15 14 0 26 -5 26 -11 0 -6 7 -17 15 -25 8 -9 15
-28 15 -44 0 -16 6 -30 13 -32 9 -4 13 -67 15 -261 l4 -257 39 0 c21 0 39 5
39 10 0 6 5 10 10 10 6 0 10 -5 10 -11 0 -11 -25 -39 -35 -39 -4 0 -14 -7 -23
-16 -12 -12 -29 -15 -71 -12 -30 3 -57 10 -59 16 -2 7 -10 12 -18 12 -8 0 -14
10 -14 25 0 14 -4 25 -9 25 -5 0 -16 3 -25 6 -11 4 -16 1 -16 -10 0 -9 -7 -16
-15 -16 -8 0 -15 -7 -15 -15 0 -9 -9 -15 -24 -15 -13 0 -26 -6 -28 -12 -6 -18
-160 -18 -165 0 -3 6 -15 12 -28 12 -16 0 -25 7 -29 25 -4 14 -11 25 -16 25
-6 0 -10 36 -10 85 0 69 3 85 15 85 8 0 15 5 15 11 0 19 58 69 80 69 11 0 23
7 26 15 4 10 20 15 45 15 28 0 39 4 39 15 0 10 10 15 30 15 17 0 30 4 30 10 0
5 11 12 25 16 14 3 25 10 25 15 0 5 7 9 15 9 12 0 15 17 15 93 0 80 -3 95 -20
110 -11 9 -25 17 -30 17 -6 0 -10 7 -10 15 0 12 -14 15 -65 15 -51 0 -65 -3
-65 -15 0 -8 -7 -15 -15 -15 -8 0 -15 -7 -15 -15 0 -8 7 -15 15 -15 9 0 15 -9
15 -25 0 -14 5 -25 10 -25 6 0 10 -7 10 -15 0 -8 -4 -15 -10 -15 -5 0 -10 -11
-10 -24 0 -19 -7 -25 -35 -30 -71 -14 -105 12 -105 78 0 33 6 52 20 66 11 11
23 20 26 20 3 0 12 7 20 15 9 8 26 15 39 15 12 0 25 7 29 15 4 12 25 15 100
15 71 0 98 -4 110 -15z m-53 -105 c5 0 9 -36 9 -80 l0 -80 -30 0 c-16 0 -30
-4 -30 -10 0 -5 -4 -10 -10 -10 -5 0 -10 11 -10 25 0 14 5 25 10 25 6 0 10 18
10 40 0 22 -4 40 -10 40 -5 0 -10 11 -10 24 0 25 21 38 48 30 8 -2 18 -4 23
-4z m639 -365 c0 -8 7 -15 15 -15 9 0 15 -9 15 -25 0 -16 6 -25 15 -25 8 0 15
-7 15 -15 0 -8 5 -15 10 -15 15 0 12 -80 -4 -96 -8 -8 -18 -14 -23 -14 -11 0
-43 37 -43 49 0 5 -5 11 -11 13 -24 8 -23 158 1 158 6 0 10 -7 10 -15z"/>
<path d="M4690 1104 l0 -197 88 7 c48 3 89 11 90 16 2 6 10 10 18 10 8 0 14 7
14 15 0 8 7 15 15 15 11 0 15 11 15 40 0 27 5 43 15 46 11 4 15 21 15 56 0 31
-6 55 -15 64 -8 9 -15 26 -15 40 0 13 -4 24 -10 24 -5 0 -10 7 -10 15 0 8 -7
15 -15 15 -8 0 -15 7 -15 15 0 12 -17 15 -95 15 l-95 0 0 -196z m218 84 c2
-16 8 -28 13 -28 5 0 9 -18 9 -40 0 -22 -4 -40 -10 -40 -5 0 -10 -18 -10 -40
0 -29 -4 -40 -15 -40 -8 0 -15 -7 -15 -15 0 -8 -7 -15 -15 -15 -8 0 -15 -7
-15 -15 0 -11 -11 -15 -40 -15 l-40 0 0 140 0 141 68 -3 c65 -3 67 -4 70 -30z"/>
<path d="M4690 671 l0 -221 95 0 c55 0 95 4 95 10 0 5 11 12 25 16 14 3 25 10
25 15 0 5 7 9 15 9 8 0 15 7 15 15 0 8 7 15 15 15 9 0 15 9 15 25 0 14 5 25
10 25 6 0 10 35 10 85 0 50 -4 85 -10 85 -5 0 -10 11 -10 25 0 16 -6 25 -15
25 -8 0 -15 7 -15 15 0 8 -7 15 -15 15 -8 0 -15 7 -15 15 0 11 -12 15 -49 15
-27 0 -51 4 -53 9 -1 5 -33 12 -70 16 l-68 7 0 -221z m270 98 c0 -6 7 -17 15
-25 10 -10 15 -35 15 -74 0 -39 -5 -64 -15 -74 -8 -8 -15 -26 -15 -40 0 -16
-6 -26 -15 -26 -8 0 -15 -4 -15 -9 0 -5 -10 -13 -22 -17 -13 -4 -25 -10 -28
-14 -3 -4 -21 -9 -40 -10 -75 -6 -70 -16 -70 150 l0 150 95 0 c61 0 95 -4 95
-11z"/>
<path d="M5576 765 c-8 -8 -26 -15 -40 -15 -16 0 -26 -6 -26 -15 0 -8 -9 -15
-20 -15 -12 0 -31 -11 -44 -25 -13 -14 -28 -25 -35 -25 -6 0 -11 -11 -11 -25
0 -14 -7 -28 -15 -31 -9 -4 -15 -19 -15 -40 0 -22 6 -37 15 -40 8 -4 15 -16
15 -29 0 -16 7 -25 25 -29 14 -4 25 -11 25 -16 0 -6 14 -10 30 -10 17 0 30 4
30 10 0 5 11 12 25 16 14 3 25 10 25 15 0 5 7 9 15 9 8 0 15 7 15 15 0 8 7 15
15 15 13 0 15 21 15 125 0 102 -3 125 -14 125 -8 0 -21 -7 -30 -15z m14 -180
c0 -32 -4 -55 -11 -55 -6 0 -17 -7 -25 -15 -9 -8 -24 -15 -35 -15 -10 0 -19
-6 -19 -12 0 -9 -4 -8 -10 2 -16 25 -12 100 5 100 8 0 15 5 15 10 0 20 25 39
53 40 26 0 27 -2 27 -55z"/>
<path d="M3260 1365 c0 -8 -7 -15 -15 -15 -8 0 -15 -7 -15 -15 0 -8 -4 -15
-10 -15 -5 0 -10 -22 -10 -50 0 -27 5 -50 10 -50 6 0 10 -7 10 -15 0 -8 7 -15
15 -15 8 0 15 -7 15 -15 0 -8 7 -15 15 -15 8 0 15 -6 15 -14 0 -8 6 -17 13
-20 10 -5 10 -7 0 -12 -7 -3 -13 -12 -13 -19 0 -7 -11 -16 -25 -19 -24 -6 -37
-46 -15 -46 6 0 10 -7 10 -15 0 -8 7 -15 15 -15 8 0 15 -7 15 -15 0 -8 7 -15
15 -15 8 0 15 -7 15 -16 0 -14 7 -15 37 -11 21 4 39 11 41 17 2 5 10 10 18 10
8 0 14 5 14 11 0 14 25 39 39 39 6 0 11 14 11 30 0 21 5 30 16 30 14 0 15 13
12 92 -2 61 -7 93 -15 96 -7 2 -13 10 -13 18 0 8 -5 14 -11 14 -14 0 -39 25
-39 39 0 6 -7 11 -15 11 -8 0 -15 7 -15 15 0 12 -14 15 -70 15 -56 0 -70 -3
-70 -15z m116 -15 c19 0 24 -5 24 -25 0 -16 6 -25 15 -25 12 0 15 -14 15 -69
0 -49 -5 -74 -15 -85 -8 -8 -15 -20 -15 -26 0 -14 -55 -70 -68 -70 -5 0 -12
-7 -16 -15 -10 -26 -26 -16 -26 15 0 25 4 30 24 30 17 0 26 7 30 25 4 14 11
25 16 25 6 0 10 14 10 30 0 30 -1 30 -55 30 -32 0 -55 4 -55 11 0 6 -7 17 -15
25 -8 9 -15 28 -15 44 0 16 7 35 15 44 8 8 15 19 15 25 0 10 55 20 78 14 8 -1
25 -3 38 -3z"/>
<path d="M3950 1150 c0 -5 -7 -10 -15 -10 -8 0 -15 -7 -15 -15 0 -18 -46 -21
-53 -2 -5 17 -239 16 -245 -1 -2 -7 -10 -12 -18 -12 -8 0 -14 -7 -14 -15 0 -8
-7 -15 -15 -15 -8 0 -15 -7 -15 -15 0 -8 -4 -15 -9 -15 -5 0 -11 -18 -15 -40
-3 -22 -11 -40 -16 -40 -13 0 -13 -47 0 -52 6 -2 13 -21 17 -43 5 -31 20 -53
74 -107 38 -37 73 -68 79 -68 5 0 10 -6 10 -14 0 -8 11 -17 25 -20 14 -4 25
-11 25 -16 0 -6 7 -10 15 -10 8 0 15 -4 15 -10 0 -5 6 -10 14 -10 30 0 46 -30
46 -85 0 -51 -1 -54 -30 -60 -16 -4 -30 -11 -30 -16 0 -5 -7 -9 -15 -9 -8 0
-15 4 -15 9 0 5 -11 12 -25 15 -21 5 -25 12 -25 42 0 19 -7 42 -15 50 -8 9
-15 29 -15 45 0 16 -5 29 -11 29 -13 0 -39 25 -39 39 0 5 -16 13 -36 17 -28 5
-39 2 -55 -14 -17 -19 -19 -36 -19 -157 0 -90 4 -135 11 -135 14 0 69 -55 69
-69 0 -16 42 -13 64 4 26 20 76 20 76 0 0 -22 208 -22 216 0 4 8 17 15 30 15
15 0 24 6 24 15 0 8 5 15 11 15 6 0 24 13 40 30 29 29 30 33 30 120 0 68 -3
94 -15 106 -9 8 -16 20 -16 25 0 14 -56 69 -69 69 -6 0 -11 5 -11 11 0 16 -52
65 -78 73 -12 4 -22 12 -22 17 0 5 -7 9 -15 9 -8 0 -15 7 -15 15 0 8 -9 15
-20 15 -12 0 -32 12 -45 26 -28 30 -34 84 -10 84 8 0 15 7 15 15 0 11 11 15
40 15 29 0 40 -4 40 -15 0 -8 7 -15 15 -15 11 0 15 -11 15 -40 0 -29 4 -40 15
-40 8 0 15 -7 15 -15 0 -8 7 -15 15 -15 8 0 15 -5 15 -11 0 -27 49 -52 86 -43
24 6 24 7 24 140 0 83 -4 134 -10 134 -13 0 -50 37 -50 50 0 6 -7 10 -15 10
-8 0 -15 5 -15 10 0 6 -4 10 -10 10 -5 0 -10 -4 -10 -10z m-98 -52 c31 -29 53
-36 71 -23 9 7 17 18 17 24 0 7 8 11 18 9 14 -3 18 -16 20 -78 4 -85 -4 -140
-19 -140 -19 0 -39 28 -39 54 0 13 -7 31 -15 40 -8 8 -15 20 -15 26 0 14 -25
40 -39 40 -6 0 -11 7 -11 15 0 12 -14 15 -70 15 -56 0 -70 -3 -70 -15 0 -8 -7
-15 -15 -15 -12 0 -15 -14 -15 -65 0 -51 3 -65 15 -65 8 0 15 -7 15 -15 0 -8
7 -15 15 -15 8 0 15 -7 15 -15 0 -8 9 -15 20 -15 12 0 31 -11 43 -24 12 -13
32 -26 45 -30 12 -4 22 -12 22 -17 0 -5 7 -9 15 -9 8 0 15 -7 15 -15 0 -9 9
-15 24 -15 16 0 27 -7 31 -22 4 -11 18 -31 31 -43 21 -20 24 -31 24 -99 0 -72
-2 -80 -29 -107 -16 -16 -34 -29 -40 -29 -6 0 -11 -7 -11 -15 0 -9 -10 -15
-26 -15 -14 0 -32 -7 -40 -15 -11 -10 -36 -15 -85 -15 -55 0 -69 3 -69 15 0
10 -10 15 -30 15 -20 0 -30 5 -30 15 0 9 -9 15 -25 15 -16 0 -25 -6 -25 -15 0
-9 -9 -15 -25 -15 -24 0 -25 3 -25 55 0 30 5 55 10 55 6 0 10 30 10 70 0 56 3
70 15 70 11 0 15 -11 15 -39 0 -25 5 -41 15 -45 9 -3 15 -18 15 -40 0 -21 6
-36 15 -40 8 -3 15 -10 15 -16 0 -18 27 -40 50 -40 11 0 23 -7 26 -15 4 -8 18
-15 34 -15 16 0 35 7 44 15 8 8 17 15 21 15 13 0 32 26 39 53 3 15 11 27 16
27 6 0 10 7 10 15 0 8 -4 15 -10 15 -5 0 -13 18 -16 40 -4 24 -12 40 -20 40
-8 0 -14 4 -14 9 0 5 -10 13 -22 17 -13 4 -33 17 -45 30 -12 13 -31 24 -43 24
-11 0 -20 7 -20 15 0 8 -7 15 -15 15 -8 0 -15 4 -15 9 0 5 -9 13 -21 16 -30
10 -59 42 -59 65 0 11 -7 20 -15 20 -12 0 -15 16 -15 84 0 62 4 89 15 100 8 8
15 19 15 25 0 6 11 11 24 11 13 0 26 7 30 15 7 20 187 22 208 3z"/>
<path d="M1480 1121 c0 -5 -12 -12 -26 -15 -24 -6 -35 -13 -69 -43 -7 -7 -18
-13 -23 -13 -5 0 -13 -11 -16 -25 -4 -14 -10 -25 -15 -25 -5 0 -12 -13 -16
-30 -4 -16 -11 -30 -16 -30 -5 0 -9 -18 -9 -39 0 -23 -5 -41 -12 -43 -9 -3
-14 -34 -16 -96 -3 -77 -1 -93 12 -98 12 -4 16 -19 16 -55 0 -37 4 -49 15 -49
9 0 15 -9 15 -25 0 -18 20 -46 70 -95 38 -39 74 -70 80 -70 5 0 10 -7 10 -15
0 -9 10 -15 26 -15 14 0 32 -7 40 -15 22 -21 206 -21 228 0 8 8 24 15 35 15
12 0 21 5 21 10 0 6 8 14 18 17 22 9 42 29 42 42 0 6 7 11 15 11 8 0 15 5 15
11 0 6 7 17 15 25 8 9 15 24 15 35 0 10 4 19 9 19 4 0 11 28 15 63 3 34 11 64
16 65 13 5 13 109 0 114 -6 2 -13 33 -17 71 -3 37 -9 67 -13 67 -4 0 -11 11
-14 25 -4 14 -11 25 -16 25 -6 0 -10 7 -10 15 0 8 -7 15 -15 15 -8 0 -15 5
-15 11 0 14 -55 69 -69 69 -6 0 -11 7 -11 15 0 8 -7 15 -15 15 -8 0 -15 4 -15
9 0 5 -11 12 -25 15 -14 4 -25 11 -25 16 0 6 -50 10 -125 10 -69 0 -125 -4
-125 -9z m232 -24 c7 -8 26 -17 41 -21 15 -3 27 -11 27 -16 0 -6 7 -10 15 -10
8 0 15 -7 15 -15 0 -8 7 -15 15 -15 9 0 15 -9 15 -25 0 -14 4 -25 9 -25 5 0
13 -10 17 -22 4 -13 11 -26 17 -30 6 -4 10 -68 10 -167 -1 -133 -4 -163 -17
-176 -9 -9 -16 -23 -16 -31 0 -8 -4 -14 -9 -14 -5 0 -12 -11 -15 -25 -4 -14
-11 -25 -16 -25 -6 0 -10 -7 -10 -15 0 -9 -9 -15 -25 -15 -16 0 -25 -6 -25
-15 0 -10 -10 -15 -29 -15 -16 0 -31 -6 -33 -12 -3 -8 -33 -14 -85 -16 -63 -3
-83 -1 -96 12 -8 9 -27 16 -41 16 -14 0 -26 4 -26 10 0 5 -11 12 -25 16 -14 3
-25 12 -25 20 0 8 -7 14 -15 14 -8 0 -15 7 -15 15 0 8 -4 15 -10 15 -5 0 -12
11 -16 25 -3 14 -10 25 -14 25 -5 0 -12 25 -15 55 -4 30 -11 55 -16 55 -5 0
-9 36 -9 80 0 44 4 80 9 80 5 0 12 25 16 55 3 30 11 55 16 55 5 0 9 9 9 21 0
24 94 119 117 119 8 0 21 7 29 15 21 20 206 22 226 2z"/>
<path d="M1546 1065 c-8 -8 -19 -15 -25 -15 -6 0 -11 -7 -11 -15 0 -8 -7 -15
-15 -15 -9 0 -15 -9 -15 -21 0 -11 -7 -27 -15 -35 -9 -9 -15 -34 -15 -60 0
-24 -4 -44 -10 -44 -6 0 -10 -40 -10 -100 0 -55 4 -100 9 -100 5 0 11 -28 13
-62 3 -35 10 -64 16 -66 7 -2 12 -15 12 -28 0 -15 6 -24 15 -24 8 0 15 -7 15
-15 0 -9 9 -15 24 -15 13 0 26 -7 30 -15 7 -19 50 -19 70 0 8 8 26 15 40 15
21 0 26 5 26 24 0 13 7 26 15 30 8 3 15 16 15 30 0 13 6 26 13 29 16 5 17 395
1 405 -6 4 -14 17 -18 30 -4 12 -12 22 -17 22 -5 0 -9 7 -9 15 0 9 -9 15 -25
15 -16 0 -25 6 -25 15 0 11 -12 15 -44 15 -26 0 -51 -6 -60 -15z m137 -85 c9
-11 17 -25 17 -30 0 -6 7 -10 15 -10 13 0 15 -28 15 -190 0 -162 -2 -190 -15
-190 -10 0 -15 -10 -15 -30 0 -20 -5 -30 -15 -30 -8 0 -15 -4 -15 -10 0 -5
-12 -13 -27 -16 -16 -4 -32 -12 -36 -18 -6 -8 -10 -7 -14 2 -2 6 -11 12 -19
12 -8 0 -14 6 -14 14 0 8 -6 16 -12 19 -10 3 -13 50 -13 192 0 142 3 189 13
193 6 2 12 15 12 28 0 15 6 24 15 24 8 0 15 7 15 15 0 8 7 15 15 15 8 0 15 4
15 9 0 8 11 13 40 20 3 0 13 -8 23 -19z"/>
<path d="M2140 1120 c0 -5 -37 -10 -82 -12 l-83 -3 -3 -37 c-3 -33 -1 -37 27
-43 24 -5 31 -12 31 -31 0 -15 6 -24 15 -24 13 0 15 -34 15 -245 l0 -244 -37
-7 c-41 -7 -53 -18 -53 -49 0 -21 31 -55 50 -55 6 0 10 -11 10 -24 0 -33 17
-36 228 -36 l182 0 0 55 c0 51 -2 55 -24 55 -17 0 -26 7 -30 25 -5 18 -13 25
-30 25 -50 0 -56 20 -56 170 0 110 3 142 15 154 8 8 15 32 15 55 0 30 4 41 15
41 8 0 15 7 15 15 0 8 5 15 10 15 6 0 13 -7 16 -15 4 -8 12 -15 20 -15 8 0 14
-5 14 -11 0 -25 35 -43 91 -47 49 -4 59 -2 59 12 0 9 6 16 14 16 8 0 16 7 20
15 3 8 10 15 16 15 5 0 10 -7 10 -15 0 -8 7 -15 15 -15 8 0 15 -7 15 -15 0 -8
7 -15 15 -15 8 0 15 -4 15 -9 0 -5 11 -12 25 -15 18 -5 25 -13 25 -31 0 -21
-5 -25 -30 -25 -20 0 -30 -5 -30 -15 0 -9 -9 -15 -25 -15 -16 0 -25 -6 -25
-15 0 -8 -4 -15 -9 -15 -5 0 -13 -10 -17 -22 -4 -13 -11 -26 -16 -29 -5 -3
-10 -45 -10 -93 1 -81 3 -89 26 -111 14 -13 26 -29 26 -35 0 -5 5 -10 11 -10
7 0 22 -11 35 -25 13 -14 26 -25 29 -25 4 0 13 -7 21 -15 22 -21 176 -21 198
0 8 8 23 15 34 15 11 0 22 7 26 15 7 19 36 20 36 1 0 -8 11 -17 25 -20 14 -4
25 -11 25 -16 0 -17 136 -12 154 5 8 8 17 15 20 15 14 0 46 36 46 52 0 19 -34
58 -50 58 -5 0 -10 5 -10 11 0 14 -25 39 -39 39 -8 0 -11 70 -11 220 0 189 -2
220 -15 220 -10 0 -15 10 -15 30 0 17 -5 30 -11 30 -14 0 -39 25 -39 39 0 6
-7 11 -15 11 -8 0 -15 7 -15 15 0 8 -7 15 -15 15 -8 0 -15 4 -15 10 0 5 -11
12 -25 16 -14 3 -25 10 -25 15 0 5 -56 9 -125 9 -69 0 -125 -4 -125 -9 0 -5
-11 -12 -25 -15 -14 -4 -25 -11 -25 -16 0 -6 -5 -10 -10 -10 -6 0 -21 -11 -34
-25 -23 -25 -66 -34 -66 -15 0 6 -7 10 -15 10 -8 0 -15 7 -15 15 0 8 -7 15
-15 15 -8 0 -15 7 -15 15 0 8 -7 15 -15 15 -8 0 -15 5 -15 10 0 6 -33 10 -80
10 -44 0 -80 -4 -80 -9 0 -5 -13 -12 -30 -16 -16 -4 -30 -11 -30 -16 0 -5 -4
-9 -10 -9 -5 0 -10 11 -10 25 0 24 -3 25 -55 25 -30 0 -55 -4 -55 -10z m80
-80 c0 -70 14 -93 26 -45 3 14 10 25 15 25 5 0 9 7 9 15 0 8 7 15 15 15 8 0
15 7 15 15 0 8 5 15 11 15 6 0 17 7 25 15 10 10 35 15 74 15 39 0 64 -5 74
-15 8 -8 19 -15 24 -15 12 0 24 -92 15 -116 -21 -57 -77 -71 -119 -31 -28 26
-33 84 -9 93 16 7 21 44 5 44 -33 0 -120 -64 -120 -89 0 -6 -7 -11 -15 -11
-10 0 -15 -10 -15 -29 0 -16 -7 -36 -15 -45 -12 -12 -15 -49 -15 -201 l0 -187
29 -29 c23 -23 39 -29 70 -29 30 0 41 -4 41 -15 0 -13 -27 -15 -180 -15 -153
0 -180 2 -180 15 0 11 11 15 39 15 l40 0 6 53 c4 28 5 155 3 281 -2 172 -6
230 -15 234 -7 2 -13 10 -13 18 0 9 -11 14 -30 14 -20 0 -30 5 -30 15 0 12 16
15 80 15 44 0 80 4 80 9 0 9 20 17 48 20 8 1 12 -19 12 -69z m768 54 c4 -6 17
-14 30 -18 12 -4 22 -12 22 -17 0 -5 7 -9 15 -9 11 0 15 -11 15 -40 0 -29 4
-40 15 -40 13 0 15 -36 15 -260 l0 -260 39 0 c22 0 41 5 44 13 2 7 8 8 13 3 5
-5 4 -11 -3 -13 -7 -3 -13 -11 -13 -19 0 -8 -5 -14 -11 -14 -6 0 -17 -7 -25
-15 -20 -20 -98 -20 -118 0 -8 8 -19 15 -24 15 -5 0 -13 11 -16 24 -9 38 -36
41 -67 6 -15 -16 -37 -30 -48 -30 -10 0 -21 -5 -23 -12 -7 -19 -131 -23 -150
-5 -8 8 -26 17 -39 19 -14 2 -25 11 -28 23 -2 11 -9 24 -17 28 -21 12 -20 167
1 167 8 0 15 7 15 15 0 8 7 15 15 15 8 0 15 7 15 15 0 8 7 15 15 15 8 0 15 5
15 10 0 6 11 10 25 10 16 0 25 6 25 15 0 11 11 15 40 15 29 0 40 4 40 15 0 10
10 15 30 15 17 0 30 4 30 9 0 5 11 12 25 15 14 4 25 11 25 16 0 6 7 10 15 10
12 0 15 17 15 96 0 95 -9 124 -40 124 -6 0 -13 7 -16 15 -5 11 -22 15 -70 15
-50 0 -64 -3 -64 -15 0 -8 -7 -15 -15 -15 -8 0 -15 -7 -15 -15 0 -8 7 -15 15
-15 9 0 15 -9 15 -25 0 -14 5 -25 10 -25 6 0 10 -7 10 -15 0 -8 -4 -15 -10
-15 -5 0 -10 -11 -10 -24 0 -19 -7 -26 -29 -31 -33 -7 -80 3 -98 21 -19 19
-17 114 2 114 8 0 15 7 15 15 0 8 5 15 11 15 6 0 17 7 25 15 9 8 29 15 45 15
20 0 29 5 29 16 0 14 14 15 105 12 63 -2 109 -7 113 -14z m-67 -104 c5 0 9
-36 9 -80 0 -79 0 -80 -25 -80 -14 0 -25 -4 -25 -10 0 -5 -7 -10 -15 -10 -9 0
-15 9 -15 25 0 14 5 25 10 25 6 0 10 18 10 40 0 22 -4 40 -10 40 -5 0 -10 11
-10 24 0 25 21 38 48 30 8 -2 18 -4 23 -4z"/>
<path d="M2916 765 c-8 -8 -26 -15 -40 -15 -16 0 -26 -6 -26 -15 0 -8 -9 -15
-20 -15 -12 0 -31 -11 -44 -25 -13 -14 -28 -25 -35 -25 -6 0 -11 -13 -11 -30
0 -16 -4 -30 -10 -30 -5 0 -10 -18 -10 -40 0 -22 5 -40 10 -40 6 0 10 -11 10
-24 0 -17 7 -26 25 -30 14 -4 25 -11 25 -16 0 -6 14 -10 30 -10 17 0 30 4 30
10 0 5 12 13 27 16 30 8 53 26 53 43 0 6 7 11 15 11 13 0 15 21 15 125 0 102
-3 125 -14 125 -8 0 -21 -7 -30 -15z m14 -180 c0 -42 -3 -55 -15 -55 -8 0 -15
-4 -15 -9 0 -5 -10 -13 -22 -17 -13 -4 -26 -11 -29 -17 -4 -5 -17 1 -30 14
-14 14 -18 24 -11 27 7 2 12 17 12 33 0 19 5 29 15 29 8 0 15 7 15 15 0 8 7
15 15 15 8 0 15 5 15 10 0 6 11 10 25 10 24 0 25 -3 25 -55z"/>
<path d="M6790 1120 c0 -5 -6 -10 -14 -10 -8 0 -21 -6 -28 -14 -8 -7 -24 -17
-36 -20 -12 -4 -22 -12 -22 -17 0 -5 -7 -9 -15 -9 -9 0 -15 -9 -15 -25 0 -16
-6 -25 -15 -25 -8 0 -15 -7 -15 -15 0 -8 -4 -15 -9 -15 -5 0 -13 -25 -16 -55
-4 -30 -11 -55 -16 -55 -5 0 -9 -56 -9 -125 0 -76 4 -125 10 -125 5 0 13 -18
16 -40 4 -22 10 -40 15 -40 5 0 9 -7 9 -15 0 -8 7 -15 15 -15 9 0 15 -9 15
-25 0 -16 6 -25 15 -25 8 0 15 -7 15 -15 0 -8 5 -15 11 -15 7 0 22 -11 35 -25
13 -14 30 -25 39 -25 9 0 18 -7 21 -15 4 -8 16 -15 29 -15 13 0 25 -7 29 -15
4 -12 26 -15 111 -15 87 0 105 3 105 15 0 10 10 15 30 15 20 0 30 5 30 15 0 8
5 15 11 15 14 0 39 25 39 39 0 6 5 11 10 11 6 0 10 -4 10 -10 0 -5 7 -10 15
-10 9 0 18 -7 21 -15 3 -8 14 -17 25 -20 10 -4 22 -17 25 -31 l6 -24 187 0
c213 1 221 3 221 69 0 39 -1 41 -30 41 -25 0 -30 4 -30 24 0 20 -6 24 -40 30
l-40 6 0 175 c0 149 2 175 15 175 9 0 15 9 15 25 0 14 9 35 20 47 l20 22 20
-22 c11 -12 20 -26 20 -32 0 -5 7 -10 15 -10 8 0 15 -7 15 -15 0 -11 13 -15
54 -15 35 0 60 5 70 15 8 8 19 15 24 15 5 0 13 11 16 25 4 14 10 25 15 25 5 0
12 -11 15 -25 4 -14 11 -25 16 -25 6 0 10 -12 10 -26 0 -14 7 -32 15 -40 8 -9
15 -27 15 -40 0 -14 7 -32 15 -40 8 -9 15 -24 15 -35 0 -10 5 -19 10 -19 6 0
10 -11 10 -24 0 -14 7 -31 15 -40 8 -8 15 -26 15 -40 0 -16 6 -26 15 -26 11 0
15 -11 15 -40 0 -22 5 -40 10 -40 6 0 10 -13 10 -30 0 -16 -4 -30 -10 -30 -5
0 -10 -18 -10 -40 0 -38 -2 -40 -30 -40 -20 0 -30 5 -30 15 0 9 -9 15 -25 15
-14 0 -25 5 -25 10 0 6 -13 10 -30 10 -16 0 -30 -4 -30 -9 0 -5 -11 -12 -24
-15 -18 -4 -25 -15 -29 -44 -9 -51 2 -112 19 -112 8 0 14 -4 14 -10 0 -5 14
-24 32 -42 31 -32 34 -33 117 -33 59 0 86 4 89 13 2 6 10 12 18 12 8 0 14 7
14 15 0 8 4 15 9 15 5 0 12 11 15 25 4 14 11 25 16 25 6 0 10 11 10 25 0 14 7
28 15 31 10 4 15 20 15 45 0 28 4 39 15 39 10 0 15 10 15 30 0 17 4 30 9 30 5
0 11 18 15 40 3 22 11 40 16 40 6 0 10 13 10 29 0 16 7 36 15 45 8 8 15 24 15
36 0 12 7 28 15 36 8 9 15 29 15 45 0 16 5 29 10 29 6 0 10 11 10 24 0 14 7
31 15 40 8 8 15 26 15 40 0 16 6 26 15 26 11 0 15 11 15 40 0 22 4 40 9 40 5
0 12 14 16 30 5 23 12 30 31 30 15 0 24 6 24 15 0 8 7 15 15 15 8 0 15 9 15
20 0 21 -33 60 -50 60 -5 0 -10 5 -10 11 0 31 -29 39 -149 39 -101 0 -121 -2
-121 -15 0 -8 -4 -15 -9 -15 -5 0 -11 -9 -14 -19 -4 -16 2 -21 24 -26 16 -4
29 -11 29 -17 0 -5 7 -16 15 -24 9 -9 15 -34 15 -59 0 -25 -6 -50 -15 -59 -8
-8 -15 -30 -15 -49 0 -22 -6 -37 -15 -41 -8 -3 -15 -17 -15 -31 0 -20 -5 -25
-24 -25 -19 0 -26 7 -31 30 -4 17 -11 30 -16 30 -5 0 -9 16 -9 35 0 22 -6 38
-15 41 -10 4 -15 20 -15 45 0 32 3 39 20 39 11 0 29 9 40 20 21 21 27 60 10
60 -5 0 -10 7 -10 15 0 8 -5 15 -10 15 -6 0 -21 11 -34 25 l-23 25 -266 0
c-226 0 -266 -2 -271 -15 -3 -8 -12 -15 -21 -15 -8 0 -15 -4 -15 -10 0 -5 -4
-10 -10 -10 -5 0 -10 11 -10 25 0 24 -3 25 -55 25 -30 0 -55 -4 -55 -10 0 -6
-31 -10 -72 -10 -93 0 -118 -7 -118 -32 0 -20 82 -108 100 -108 13 0 13 -460
1 -479 -5 -7 -21 -13 -35 -13 -30 0 -48 12 -28 19 6 3 12 9 12 14 0 10 -36 49
-46 49 -10 0 -34 28 -34 39 0 6 -18 11 -39 11 -33 0 -40 -4 -45 -25 -4 -14
-11 -25 -16 -25 -6 0 -10 -7 -10 -15 0 -8 -5 -15 -11 -15 -6 0 -17 -7 -25 -15
-22 -21 -154 -21 -154 0 0 8 -7 15 -15 15 -11 0 -15 11 -15 39 0 22 -4 41 -9
43 -6 2 -13 26 -16 54 -7 48 -6 51 16 57 13 4 106 7 206 7 l183 0 6 26 c9 33
-4 158 -16 162 -6 2 -10 15 -10 28 0 15 -6 24 -15 24 -9 0 -15 9 -15 25 0 16
-6 25 -15 25 -8 0 -15 7 -15 15 0 8 -7 15 -15 15 -8 0 -15 4 -15 10 0 5 -11
12 -25 16 -14 3 -25 12 -25 20 0 8 -7 14 -15 14 -8 0 -15 5 -15 10 0 6 -48 10
-125 10 -77 0 -125 -4 -125 -10z m226 -25 c4 -8 17 -15 30 -15 15 0 24 -6 24
-15 0 -8 7 -15 15 -15 8 0 15 -7 15 -15 0 -8 4 -15 10 -15 5 0 12 -11 16 -25
3 -14 10 -25 15 -25 5 0 9 -31 9 -70 l0 -70 -199 0 c-172 0 -200 -2 -205 -16
-3 -9 -6 -51 -6 -95 0 -64 3 -79 15 -79 11 0 15 -11 15 -40 0 -29 4 -40 15
-40 8 0 15 -5 15 -11 0 -19 58 -69 80 -69 11 0 23 -7 26 -15 8 -20 70 -20 78
0 3 8 17 15 31 15 14 0 25 5 25 10 0 6 7 10 15 10 8 0 15 7 15 15 0 8 7 15 15
15 8 0 15 4 15 10 0 12 32 50 42 50 5 0 8 -13 8 -30 0 -16 -4 -30 -9 -30 -5 0
-12 -11 -15 -25 -4 -14 -11 -25 -16 -25 -6 0 -10 -6 -10 -14 0 -8 -11 -17 -25
-20 -14 -4 -25 -11 -25 -16 0 -6 -13 -10 -29 -10 -17 0 -31 -6 -35 -16 -5 -13
-19 -16 -83 -12 -48 2 -78 8 -81 16 -2 7 -16 12 -32 12 -15 0 -33 7 -40 15 -7
8 -19 15 -26 15 -8 0 -14 5 -14 11 0 7 -11 22 -25 35 -14 13 -25 32 -25 44 0
11 -7 20 -15 20 -11 0 -15 11 -15 36 0 19 -7 43 -16 51 -13 13 -15 35 -12 111
2 65 7 97 16 100 7 2 12 20 12 43 0 28 4 39 15 39 8 0 15 9 15 20 0 12 11 31
25 44 14 13 25 28 25 35 0 6 7 11 15 11 8 0 15 7 15 15 0 9 10 15 26 15 14 0
32 7 40 15 12 11 39 15 110 15 75 0 96 -3 100 -15z m455 5 c5 0 9 -22 9 -50 0
-38 4 -50 15 -50 8 0 15 5 15 11 0 14 55 69 69 69 6 0 11 7 11 15 0 12 14 15
70 15 56 0 70 -3 70 -15 0 -8 7 -15 15 -15 8 0 15 -7 15 -15 0 -8 5 -15 10
-15 6 0 10 -25 10 -55 0 -32 -4 -55 -11 -55 -6 0 -17 -7 -25 -15 -9 -8 -29
-15 -45 -15 -19 0 -29 5 -29 15 0 8 -7 15 -15 15 -11 0 -15 12 -15 44 0 26 6
51 15 60 21 20 19 26 -10 26 -14 0 -25 -4 -25 -10 0 -5 -9 -10 -20 -10 -23 0
-55 -29 -65 -59 -3 -12 -11 -21 -16 -21 -5 0 -9 -11 -9 -24 0 -13 -7 -26 -15
-30 -23 -8 -23 -436 0 -436 8 0 15 -7 15 -14 0 -11 14 -16 50 -18 28 -2 51 -7
53 -13 1 -6 -64 -11 -175 -13 -154 -2 -178 0 -178 13 0 9 9 15 26 15 53 0 54
6 54 294 0 253 -1 267 -20 286 -11 11 -29 20 -40 20 -11 0 -20 7 -20 15 0 12
15 15 79 15 63 0 80 3 85 16 4 10 12 14 22 10 9 -3 20 -6 25 -6z m616 -6 c2
-5 -17 -18 -42 -29 -33 -15 -45 -26 -45 -41 0 -12 7 -24 15 -28 9 -3 15 -18
15 -40 0 -21 6 -36 15 -40 8 -3 15 -17 15 -31 0 -14 4 -25 9 -25 5 0 11 -18
15 -40 3 -22 11 -40 16 -40 6 0 10 -13 10 -30 0 -20 5 -30 15 -30 11 0 15 -11
15 -40 0 -29 4 -40 15 -40 8 0 15 -7 15 -15 0 -27 18 -16 25 15 4 17 11 30 16
30 5 0 9 10 9 23 0 12 7 31 15 41 8 11 15 30 15 43 0 13 5 23 10 23 6 0 10 13
10 29 0 16 7 36 15 45 8 8 15 26 15 40 0 16 6 26 15 26 12 0 15 13 15 55 0 51
-2 55 -23 55 -22 0 -57 31 -57 50 0 6 39 10 95 10 l95 0 0 -30 c0 -25 -4 -30
-25 -30 -20 0 -25 -5 -25 -25 0 -14 -7 -28 -15 -31 -9 -4 -15 -19 -15 -40 0
-22 -6 -37 -15 -40 -9 -4 -15 -19 -15 -39 0 -20 -6 -35 -15 -39 -8 -3 -15 -17
-15 -31 0 -14 -4 -25 -10 -25 -5 0 -10 -13 -10 -29 0 -16 -7 -36 -15 -45 -8
-8 -15 -24 -15 -36 0 -12 -7 -28 -15 -36 -8 -9 -15 -29 -15 -45 0 -16 -4 -29
-10 -29 -5 0 -13 -18 -16 -40 -4 -22 -10 -40 -15 -40 -5 0 -9 -13 -9 -30 0
-20 -5 -30 -15 -30 -11 0 -15 -11 -15 -40 0 -29 -4 -40 -15 -40 -10 0 -15 -10
-15 -30 0 -16 -4 -30 -10 -30 -5 0 -12 -11 -16 -25 -3 -14 -10 -25 -15 -25 -5
0 -9 -7 -9 -15 0 -8 -6 -15 -14 -15 -8 0 -16 -5 -18 -12 -2 -6 -31 -13 -66
-16 -50 -4 -63 -1 -68 12 -3 9 -12 16 -20 16 -10 0 -14 15 -14 55 0 43 3 55
15 55 9 0 18 7 21 15 4 8 17 15 30 15 15 0 24 -6 24 -15 0 -8 5 -15 11 -15 19
0 39 -28 39 -54 0 -16 6 -26 15 -26 8 0 15 7 15 15 0 8 7 15 15 15 9 0 15 9
15 25 0 14 5 25 10 25 6 0 10 11 10 25 0 14 7 28 15 31 10 4 15 21 15 54 0 33
-5 50 -15 54 -8 3 -15 17 -15 31 0 14 -4 25 -9 25 -5 0 -11 18 -15 40 -3 22
-11 40 -16 40 -6 0 -10 14 -10 30 0 20 -5 30 -15 30 -11 0 -15 11 -15 40 0 29
-4 40 -15 40 -9 0 -15 9 -15 25 0 14 -4 25 -9 25 -5 0 -12 14 -16 30 -4 17
-11 30 -16 30 -5 0 -9 18 -9 40 0 29 -4 40 -15 40 -10 0 -15 10 -15 30 0 17
-4 30 -10 30 -5 0 -12 11 -16 25 -4 18 -13 25 -30 25 -19 0 -24 5 -24 25 0 23
4 25 45 25 25 0 45 -4 45 -10 0 -5 11 -10 25 -10 14 0 25 4 25 10 0 5 26 11
58 13 70 4 75 3 79 -9z"/>
<path d="M6850 1065 c0 -8 -5 -15 -11 -15 -13 0 -33 -20 -42 -42 -3 -10 -11
-18 -17 -18 -5 0 -10 -15 -10 -32 0 -18 -7 -42 -15 -52 -32 -43 -23 -46 126
-46 l141 0 -8 68 c-3 37 -11 69 -15 70 -5 2 -9 10 -9 17 0 8 -11 26 -25 40
-20 19 -36 25 -70 25 -33 0 -45 -4 -45 -15z m110 -85 c0 -5 7 -10 15 -10 11 0
15 -11 15 -40 l0 -40 -70 0 c-40 0 -70 4 -70 10 0 6 5 10 10 10 6 0 14 8 17
18 9 22 29 42 42 42 6 0 11 5 11 10 0 6 7 10 15 10 8 0 15 -4 15 -10z"/>
</g>
</svg>
